# xmcd
#
# Track frame offsets: 
#        150
#        13268
#        27678
#        46430
#        62858
#        79217
#        95070
#        109846
#        120912
#        137481
#        151252
#        167831
#        183608
#        197223
#        210804
#        223040
#        238514
#        255185
#        271053
#        286424
#
# Disc length: 4065 seconds
#
# Revision: 0
# Processed by: cddbd v1.5.2PL0 Copyright (c) Steve Scherf et al.
# Submitted via: ExactAudioCopy v0.99pb4
#
DISCID=1d0fdf14
DTITLE=Bart Kaëll - 30 - CD 2
DYEAR=2013
DGENRE=Chanson
TTITLE0=De Marie Louise
TTITLE1=Hallo Goeie Morgen!
TTITLE2=Zeil Je Voor Het Eerst
TTITLE3=La Mamadora 
TTITLE4=Mooi Weer Vandaag
TTITLE5=Duizend Terrassen In Rome
TTITLE6=Elke Dag Een Beetje Mooier
TTITLE7=Moeder
TTITLE8=Heb Jij Een Vuurtje Voor Mij
TTITLE9=Dansen In Bahia
TTITLE10=Ik Heb Je Lief
TTITLE11=Marlène
TTITLE12=Beetje Gek
TTITLE13=Mee Met De Wind
TTITLE14=Beetje Bij Beetje
TTITLE15='t Is Volle Maan Vannacht
TTITLE16=Ik Neem Je In M'n Armen
TTITLE17=Ik Weet Niet Wat Ik Doe
TTITLE18=Mooi Om Te Zien
TTITLE19=Love Me Forever
EXTD=
EXTT0=
EXTT1=
EXTT2=
EXTT3=
EXTT4=
EXTT5=
EXTT6=
EXTT7=
EXTT8=
EXTT9=
EXTT10=
EXTT11=
EXTT12=
EXTT13=
EXTT14=
EXTT15=
EXTT16=
EXTT17=
EXTT18=
EXTT19=
PLAYORDER=
